<?xml version="1.0" encoding="UTF-8"?> <svg xmlns="http://www.w3.org/2000/svg" width="253.427" height="100" viewBox="0 0 253.427 100"><g id="Unified-Symposium-Logo" transform="translate(-1.548 -1.7)"><path id="Path_49912" data-name="Path 49912" d="M72.049,60.419a4.253,4.253,0,0,0-5.17-1.123h0a4.079,4.079,0,0,0-.775.506l-.142.095-.791.538H65.03A34.229,34.229,0,0,1,59.48,63.6a50.119,50.119,0,0,1-17.692,4.174h0a33.945,33.945,0,0,1-21.423-6.862,25.3,25.3,0,0,1-9.913-20.964A28.19,28.19,0,0,1,18.9,19.566c6.213-6.324,14.593-9.486,24.885-9.486a32.949,32.949,0,0,1,15.178,3.462c7,3.573,10.561,9.486,10.561,17.692a21.613,21.613,0,0,1-3.874,13.439,19.669,19.669,0,0,1-1.423,1.676,13.122,13.122,0,0,1-4.743,3.067h-.237c-.98.19-2.688.111-3.3-2.451a22.483,22.483,0,0,1,.253-6.087l4.174-21.012H51.053L46.737,41.7c-.98,5.075-4.221,8.7-9.249,8.237a5.85,5.85,0,0,1-4.443-2.166,7.494,7.494,0,0,1-.933-5.834L36.476,19.8H27.227L22.816,41.779c-1.581,8.49,1.581,14.672,8.743,16.538a19.431,19.431,0,0,0,5.012.617c4.743,0,7.779-1.818,11.447-4.632a.9.9,0,0,1,.664-.174,1.407,1.407,0,0,1,.6.364,17.391,17.391,0,0,0,3.162,2.324,7.589,7.589,0,0,0,2.8,1.059h.269a10.356,10.356,0,0,0,1.075.079h.648c6.324,0,9.992-2.372,14.435-7.6a28.032,28.032,0,0,0,6.656-18.609A27.1,27.1,0,0,0,67.844,9.605C61.3,4.388,52.935,1.7,42.99,1.7,30.8,1.7,20.634,5.574,12.808,13.178A35.589,35.589,0,0,0,1.551,39.66a37.138,37.138,0,0,0,2.53,13.723l.538,1.36h0l.569,1.107a36.364,36.364,0,0,0,5.375,7.984,34.466,34.466,0,0,0,7.715,6.514,40.3,40.3,0,0,0,21.628,6.134h1.581a48.786,48.786,0,0,0,21.976-4.964h0l.253-.126c1.233-.632,2.466-1.328,3.7-2.1,2.134-1.3,4.427-2.862,4.854-3.826h0a4.237,4.237,0,0,0-.237-5.043" fill="#b92454"></path><path id="Path_49913" data-name="Path 49913" d="M69.808,20.274a6.83,6.83,0,0,0-6.846,4.332,14.435,14.435,0,0,0-.98,5.723v20.4h-9.8V13.048h4a5.5,5.5,0,0,1,5.5,5.5,16.712,16.712,0,0,1,3.589-4.19,12.506,12.506,0,0,1,7.7-2.277,14.545,14.545,0,0,1,9.486,3.051c2.466,2.04,3.715,5.423,3.715,10.15v25.3H76.133V27.768a10.371,10.371,0,0,0-.806-4.569,5.581,5.581,0,0,0-5.518-2.893" transform="translate(29.419 6.027)" fill="#54565a"></path><path id="Path_49914" data-name="Path 49914" d="M86.046,17.533v32.68H76.07V17.533a5,5,0,0,1,9.976,0" transform="translate(43.299 6.46)" fill="#54565a"></path><path id="Path_49915" data-name="Path 49915" d="M105.47,4.136v8.016a27.8,27.8,0,0,0-2.783-.206,3.162,3.162,0,0,0-2.688.87,3.051,3.051,0,0,0-.743,2.008v3.162h6.451v6.957H99.257V55.377H89.439V25.005H84V18.049h5.391v-2.4c0-4.047.68-6.814,2.04-8.332C92.87,5.053,96.3,3.93,101.771,3.93h1.692l2.071.158" transform="translate(47.907 1.296)" fill="#54565a"></path><path id="Path_49916" data-name="Path 49916" d="M109.612,17.636v32.68H99.62V17.636a5,5,0,0,1,9.992,0" transform="translate(56.983 6.356)" fill="#54565a"></path><path id="Path_49917" data-name="Path 49917" d="M143.3,39.635a12.49,12.49,0,0,1-3.478,6.8q-4.838,5.5-13.549,5.5A19.1,19.1,0,0,1,113.622,47.3q-5.5-4.617-5.5-15.067,0-9.787,4.964-15a16.933,16.933,0,0,1,12.87-5.217,19.636,19.636,0,0,1,8.474,1.771,14.846,14.846,0,0,1,6.213,5.565,18.846,18.846,0,0,1,2.862,7.763,50.058,50.058,0,0,1,.316,7.462H118.049q.19,5.676,3.557,7.905a8.332,8.332,0,0,0,4.9,1.423,7.1,7.1,0,0,0,4.949-1.739,8.268,8.268,0,0,0,1.771-2.53Zm-9.739-11.541a8.522,8.522,0,0,0-2.372-5.929,7.257,7.257,0,0,0-5.265-2.024,6.688,6.688,0,0,0-5.344,2.134,10.624,10.624,0,0,0-2.372,5.818Z" transform="translate(61.921 5.986)" fill="#54565a"></path><path id="Path_49918" data-name="Path 49918" d="M169.273,4.3V55.162h-4.364a5.217,5.217,0,0,1-5.217-5.217,13.881,13.881,0,0,1-4.743,4.87,13.47,13.47,0,0,1-6.7,1.581,13.976,13.976,0,0,1-11.067-5.328,20.553,20.553,0,0,1-4.522-13.707q0-9.628,4.443-15.162a14.435,14.435,0,0,1,11.874-5.534,12.237,12.237,0,0,1,6.087,1.5,11.937,11.937,0,0,1,4.316,4.158V4.3ZM142.7,36.569a14.878,14.878,0,0,0,2.1,8.364,6.893,6.893,0,0,0,6.229,3.162,7.288,7.288,0,0,0,6.324-3.162,13.707,13.707,0,0,0,2.166-8.047q0-6.925-3.478-9.881a7.541,7.541,0,0,0-4.98-1.8,6.909,6.909,0,0,0-6.324,3.273,15.1,15.1,0,0,0-2.04,8.095" transform="translate(76.168 1.511)" fill="#54565a"></path><path id="Path_49919" data-name="Path 49919" d="M99.69,9.1a4.885,4.885,0,1,1,4.885,4.885A4.885,4.885,0,0,1,99.69,9.1" transform="translate(57.023 1.458)" fill="#80bc00"></path><path id="Path_49920" data-name="Path 49920" d="M76.13,9a4.9,4.9,0,0,1,9.787,0A4.9,4.9,0,0,1,76.13,9" transform="translate(43.334 1.555)" fill="#80bc00"></path><path id="Path_49921" data-name="Path 49921" d="M63.027,47.386c.285,1.281.538,2.593.743,4h.379c.237-1.344.522-2.609.806-4.032l.791-4.063h2.925L65.809,53.663H61.936l-.87-4.49c-.221-1.186-.427-2.4-.569-3.652h-.379c-.142,1.217-.364,2.482-.569,3.652l-.806,4.458H54.963L52.07,43.26h3.051l.917,4.063c.332,1.423.617,2.672.838,4.032h.379c.221-1.375.474-2.719.727-4l.854-4.095h3.352Z" transform="translate(29.355 24.147)" fill="#7b868c"></path><path id="Path_49922" data-name="Path 49922" d="M63.17,41h3.162v2.15H63.17Zm0,3.6h2.972V54.976H63.233Z" transform="translate(35.804 22.834)" fill="#7b868c"></path><path id="Path_49923" data-name="Path 49923" d="M69.332,53.779H66.36V43.408h2.909v2.719h.206a3.7,3.7,0,0,1,3.494-3.067c1.992,0,2.988,1.375,2.988,3.636v7.02H72.984V47.582c0-1.043-.474-1.771-1.581-1.771a2.024,2.024,0,0,0-2.087,2.2Z" transform="translate(37.658 24.031)" fill="#7b868c"></path><path id="Path_49924" data-name="Path 49924" d="M73.361,48.8c0-3.589,1.945-5.692,5.312-5.692a4.269,4.269,0,0,1,4.743,4.743v1.407H76.3c.174,1.581.933,2.4,2.356,2.4a1.913,1.913,0,0,0,2.055-1.439l2.53.632c-.458,1.8-1.581,3.162-4.617,3.162a4.743,4.743,0,0,1-5.265-5.249M76.318,47.7h4.4c0-1.581-.727-2.4-2.055-2.4s-2.182.822-2.34,2.4" transform="translate(41.708 24.043)" fill="#7b868c"></path><path id="Path_49925" data-name="Path 49925" d="M97.252,54.783a7.59,7.59,0,0,1-1.581.126,8.806,8.806,0,0,1-4.522-1.376,5.549,5.549,0,0,1-4.126,1.439c-2.435,0-4.253-1.17-4.253-3.557,0-2.008,1.3-3.067,3.162-3.779a6.466,6.466,0,0,1-.664-2.561c0-2.64,2.087-3.715,4.221-3.715,2.751,0,3.953,1.249,3.953,2.957,0,2.4-2.372,3.162-4.4,3.557a9.787,9.787,0,0,0,3.162,2.988A10.609,10.609,0,0,0,94.2,46.309l2.64.364a7.905,7.905,0,0,1-3.162,4.949,6.751,6.751,0,0,0,2.15.364h1.217Zm-7.589-2.34a14.577,14.577,0,0,1-3.289-3.905,2.672,2.672,0,0,0-.9,2.134c0,1.186.7,2.1,2.5,2.1a4,4,0,0,0,1.692-.332M88.446,46.8c1.581-.474,2.387-1.154,2.387-2.182,0-.7-.411-1.154-1.3-1.154a1.423,1.423,0,0,0-1.581,1.581,4.348,4.348,0,0,0,.411,1.739" transform="translate(47.192 23.044)" fill="#7b868c"></path><path id="Path_49926" data-name="Path 49926" d="M99.865,57.47c-3.953,0-5.075-.806-5.075-2.1,0-.933,1.028-1.581,2.435-1.85v-.142c-1.123-.142-1.581-.7-1.581-1.423s.458-1.107,1.312-1.486l.759-.379a3.162,3.162,0,0,1-2.4-3.162c0-2.308,1.755-3.6,4.743-3.6H105.3v2.229h-1.138a17.124,17.124,0,0,1-1.992-.111v.253c1.3.237,2.387.711,2.387,1.913,0,1.723-1.581,2.846-4.553,2.846a8.142,8.142,0,0,1-1.723-.237l-.174.285a1.249,1.249,0,0,0-.206.569c0,.364.269.522.917.522h3.4c2.292,0,3.336,1,3.336,2.688,0,2.166-1.423,3.257-5.613,3.257m3.32-3.162c0-.49-.348-.854-1.186-.854H98.537c-.917,0-1.47.443-1.47.949s.553,1.012,3.036,1.012,3.162-.379,3.162-1.107m-5.249-7.32c0,.838.506,1.47,1.992,1.47s2.04-.632,2.04-1.47-.617-1.455-2.04-1.455-1.992.632-1.992,1.455" transform="translate(54.176 24.182)" fill="#7b868c"></path><path id="Path_49927" data-name="Path 49927" d="M102.29,53.692V43.321H105.1v3.368h.237c.664-2.877,1.581-3.478,2.893-3.478h.3v3.415h-.6c-2.087,0-2.672.617-2.672,2.451v4.617Z" transform="translate(58.534 24.118)" fill="#7b868c"></path><path id="Path_49928" data-name="Path 49928" d="M113.361,51.251h-.253a3.431,3.431,0,0,1-3.4,2.688,2.719,2.719,0,0,1-3.036-2.925c0-1.85,1.091-3.162,3.826-3.162h2.719v-.727c0-1.059-.459-1.676-1.581-1.676a1.581,1.581,0,0,0-1.755,1.486l-2.8-.632c.348-1.881,1.787-3.162,4.743-3.162,3.162,0,4.427,1.439,4.427,4.032v6.593h-2.893Zm-.142-1.581v-.411h-2.15c-.964,0-1.581.427-1.581,1.154s.364,1.186,1.581,1.186a1.976,1.976,0,0,0,2.213-1.929" transform="translate(61.075 24.078)" fill="#7b868c"></path><path id="Path_49929" data-name="Path 49929" d="M120.394,54.009a3.541,3.541,0,0,1-3.352-3.02h-.19v6.04H113.88V43.385h2.972v2.625h.206a3.478,3.478,0,0,1,3.336-2.909c2.277,0,3.573,1.929,3.573,5.486s-1.3,5.423-3.573,5.423m.648-5.47c0-1.9-.648-2.8-2.055-2.8a2.134,2.134,0,0,0-2.134,2.435v.806a2.134,2.134,0,0,0,2.1,2.4c1.439,0,2.087-.933,2.087-2.846" transform="translate(65.268 24.054)" fill="#7b868c"></path><path id="Path_49930" data-name="Path 49930" d="M121.012,48.8c0-3.589,1.945-5.692,5.312-5.692a4.269,4.269,0,0,1,4.743,4.743v1.407h-7.02c.174,1.581.949,2.4,2.372,2.4a1.881,1.881,0,0,0,2.087-1.439l2.5.664c-.459,1.8-1.581,3.162-4.617,3.162a4.743,4.743,0,0,1-5.375-5.249m2.957-1.059h4.316c0-1.581-.711-2.4-2.04-2.4s-2.134.7-2.277,2.4" transform="translate(69.393 24.043)" fill="#7b868c"></path><path id="Path_49931" data-name="Path 49931" d="M52.43,63.568l2.672-.553a2.055,2.055,0,0,0,2.261,1.723c1,0,1.581-.316,1.581-1s-.411-.98-2.308-1.36c-2.846-.617-3.81-1.581-3.81-3.32S54.248,55.9,57.173,55.9s4,1.186,4.379,3l-2.64.553c-.253-1.075-.727-1.581-1.8-1.581s-1.455.332-1.455.949.285.98,2.134,1.36c3.162.68,4.016,1.739,4.016,3.368,0,2.008-1.328,3.162-4.458,3.162-3.494,0-4.569-1.391-4.854-3.273" transform="translate(29.564 31.492)" fill="#7b868c"></path><path id="Path_49932" data-name="Path 49932" d="M58.507,69.951l.443-2.514a6.466,6.466,0,0,0,1.328.158,1.85,1.85,0,0,0,2.087-1.3L58.46,56.07h3.257l1.028,3.81c.316,1.154.68,2.5,1.012,3.763h.379c.316-1.3.664-2.577.933-3.7l.964-3.874H69.2L65.1,66.489c-1,2.53-2.308,3.621-4.917,3.621a8.854,8.854,0,0,1-1.708-.158" transform="translate(33.068 31.59)" fill="#7b868c"></path><path id="Path_49933" data-name="Path 49933" d="M68.832,66.54H65.86V56.185h2.909v2.767h.206A3.652,3.652,0,0,1,72.405,55.9c1.834,0,2.735,1.154,2.862,3.162h.3c.569-2.04,1.739-3.162,3.447-3.162,2.04,0,3.067,1.375,3.067,3.621v7.02h-3V60.358c0-1.059-.474-1.771-1.581-1.771a1.992,1.992,0,0,0-2.04,2.213v5.771H72.485V60.358c0-1.059-.506-1.771-1.581-1.771A2.008,2.008,0,0,0,68.832,60.8Z" transform="translate(37.367 31.492)" fill="#7b868c"></path><path id="Path_49934" data-name="Path 49934" d="M83.874,66.841a3.573,3.573,0,0,1-3.368-3.02h-.174v6.04H77.36V56.185h2.972v2.609h.206A3.478,3.478,0,0,1,83.874,55.9c2.277,0,3.573,1.913,3.573,5.486s-1.344,5.455-3.573,5.455m.632-5.455c0-1.913-.632-2.8-2.055-2.8s-2.119.933-2.119,2.419v.806a2.134,2.134,0,0,0,2.1,2.4c1.439,0,2.071-.933,2.071-2.83" transform="translate(44.049 31.492)" fill="#7b868c"></path><path id="Path_49935" data-name="Path 49935" d="M84.433,61.421a5.344,5.344,0,1,1,2.581,4.869,5.344,5.344,0,0,1-2.581-4.869m2.972,0c0,1.881.68,2.972,2.356,2.972s2.372-1.091,2.372-2.972-.727-2.957-2.372-2.957-2.356,1.075-2.356,2.957" transform="translate(48.154 31.426)" fill="#7b868c"></path><path id="Path_49936" data-name="Path 49936" d="M91.7,63.568l2.672-.553a2.04,2.04,0,0,0,2.245,1.723c1.012,0,1.581-.316,1.581-1s-.411-.98-2.308-1.36c-2.846-.617-3.81-1.581-3.81-3.32S93.5,55.9,96.427,55.9s4,1.186,4.379,3l-2.656.553c-.237-1.075-.711-1.581-1.787-1.581s-1.47.332-1.47.949.285.98,2.15,1.36c3.162.68,4.016,1.739,4.016,3.368,0,2.008-1.328,3.162-4.458,3.162-3.494,0-4.569-1.391-4.854-3.273" transform="translate(52.381 31.492)" fill="#7b868c"></path><path id="Path_49937" data-name="Path 49937" d="M98.48,53.79h3.162v2.15H98.48Zm0,3.621h2.972V67.766H98.559Z" transform="translate(56.32 30.266)" fill="#7b868c"></path><path id="Path_49938" data-name="Path 49938" d="M108.328,63.685h-.221a3.636,3.636,0,0,1-3.494,3.051c-1.96,0-2.972-1.391-2.972-3.652v-7h2.972v6.2c0,1.075.49,1.787,1.581,1.787a2.008,2.008,0,0,0,2.055-2.2V56.08h2.988V66.436h-2.909Z" transform="translate(58.156 31.596)" fill="#7b868c"></path><path id="Path_49939" data-name="Path 49939" d="M111.925,66.54H109V56.185h2.909v2.767h.253A3.621,3.621,0,0,1,115.64,55.9c1.834,0,2.735,1.154,2.862,3.162h.237c.569-2.04,1.755-3.162,3.462-3.162,2.024,0,3.051,1.375,3.051,3.621v7.02h-2.988V60.358c0-1.059-.49-1.771-1.581-1.771a1.992,1.992,0,0,0-2.2,2.213v5.771h-2.972V60.358c0-1.059-.506-1.771-1.581-1.771a2.008,2.008,0,0,0-2.008,2.213Z" transform="translate(62.433 31.492)" fill="#7b868c"></path><path id="Path_49940" data-name="Path 49940" d="M163.353,5.281a3.32,3.32,0,0,1,.98,2.387,3.415,3.415,0,0,1-5.8,2.482,3.32,3.32,0,0,1-.98-2.387,3.4,3.4,0,0,1,3.4-3.462,3.241,3.241,0,0,1,2.4.98M163.1,9.85a3,3,0,0,0,.87-2.182,2.941,2.941,0,0,0-.87-2.15,2.893,2.893,0,0,0-2.15-.885,2.956,2.956,0,0,0-2.166.885,3,3,0,0,0-.87,2.182,2.941,2.941,0,0,0,.87,2.15,2.893,2.893,0,0,0,2.15.885A2.957,2.957,0,0,0,163.1,9.85m-.569-2.862a1.075,1.075,0,0,1-.221.7,1.17,1.17,0,0,1-.617.379l.964,1.344h-.806l-.87-1.233h-.727V9.36h-.68V5.818h1.581a1.47,1.47,0,0,1,1,.3,1,1,0,0,1,.379.822m-.7,0q0-.569-.711-.569h-.87V7.494h.87a.854.854,0,0,0,.522-.142.506.506,0,0,0,.19-.411" transform="translate(90.641 1.51)" fill="#54565a"></path></g></svg> 